# Blender 4.5.3 LTS
# www.blender.org
mtllib BadSquare.mtl
o Cube
v 1.000000 2.029490 -1.000000
v 1.000000 0.029490 -1.000000
v 1.000000 2.029490 1.000000
v 1.000000 0.029490 1.000000
v -1.000000 2.029490 -1.000000
v -1.000000 0.029490 -1.000000
v -1.000000 2.029490 1.000000
v -1.000000 0.029490 1.000000
v 0.573713 2.029490 0.573713
v -0.573713 2.029490 0.573713
v 0.573713 2.029490 -0.573713
v -0.573713 2.029490 -0.573713
v 0.237072 2.997512 0.237072
v -0.237072 2.997512 0.237072
v 0.237072 2.997512 -0.237072
v -0.237072 2.997512 -0.237072
v 1.134325 3.151683 1.134325
v -1.134325 3.151683 1.134325
v 1.134325 3.151683 -1.134325
v -1.134325 3.151683 -1.134325
v 1.134325 3.614408 1.134325
v -1.134325 3.614408 1.134325
v 1.134325 3.614408 -1.134325
v -1.134325 3.614408 -1.134325
v -0.476060 0.553429 2.193952
v -0.476060 1.505550 2.193952
v 0.476060 1.505550 2.193952
v 0.476060 0.553429 2.193952
v -0.682345 1.711834 -2.003699
v 0.682345 1.711834 -2.003699
v -0.682345 0.347145 -2.003699
v 0.682345 0.347145 -2.003699
vn -0.0000 1.0000 -0.0000
vn -0.0000 -0.9157 0.4018
vn -1.0000 -0.0000 -0.0000
vn -0.0000 -1.0000 -0.0000
vn 1.0000 -0.0000 -0.0000
vn 0.5124 -0.0000 -0.8588
vn -0.0000 0.3285 -0.9445
vn -0.1693 -0.9856 -0.0000
vn 0.9445 0.3285 -0.0000
vn -0.9445 0.3285 -0.0000
vn -0.0000 0.3285 0.9445
vn -0.0000 -0.0000 -1.0000
vn -0.0000 -0.9856 0.1693
vn -0.0000 -0.9856 -0.1693
vn 0.1693 -0.9856 -0.0000
vn -0.0000 -0.0000 1.0000
vn -0.0000 0.9157 0.4018
vn 0.9157 -0.0000 0.4018
vn -0.9157 -0.0000 0.4018
vn -0.5124 -0.0000 -0.8588
vn -0.0000 -0.5124 -0.8588
vn -0.0000 0.5124 -0.8588
vt 0.625000 0.250000
vt 0.625000 0.000000
vt 0.125000 0.750000
vt 0.375000 0.750000
vt 0.375000 0.000000
vt 0.375000 0.250000
vt 0.125000 0.500000
vt 0.375000 0.500000
vt 0.625000 0.500000
vt 0.625000 0.750000
vt 0.625000 1.000000
vt 0.875000 0.500000
vt 0.875000 0.750000
vt 0.375000 1.000000
s 0
usemtl Material
f 5/1/1 7/2/1 10/2/1 12/1/1
f 8/3/2 4/4/2 28/4/2 25/3/2
f 8/5/3 7/2/3 5/1/3 6/6/3
f 6/7/4 2/8/4 4/4/4 8/3/4
f 2/8/5 1/9/5 3/10/5 4/4/5
f 1/9/6 2/8/6 29/8/6 31/9/6
f 11/9/7 12/1/7 16/1/7 15/9/7
f 3/10/1 1/9/1 11/9/1 9/10/1
f 1/9/1 5/1/1 12/1/1 11/9/1
f 7/11/1 3/10/1 9/10/1 10/11/1
f 16/1/8 14/2/8 18/2/8 20/1/8
f 9/10/9 11/9/9 15/9/9 13/10/9
f 12/1/10 10/2/10 14/2/10 16/1/10
f 10/11/11 9/10/11 13/10/11 14/11/11
f 19/9/12 20/1/12 24/1/12 23/9/12
f 14/11/13 13/10/13 17/10/13 18/11/13
f 15/9/14 16/1/14 20/1/14 19/9/14
f 13/10/15 15/9/15 19/9/15 17/10/15
f 23/9/1 24/12/1 22/13/1 21/10/1
f 17/10/5 19/9/5 23/9/5 21/10/5
f 20/1/3 18/2/3 22/2/3 24/1/3
f 18/11/16 17/10/16 21/10/16 22/11/16
f 28/4/16 27/10/16 26/11/16 25/14/16
f 3/10/17 7/11/17 26/11/17 27/10/17
f 4/4/18 3/10/18 27/10/18 28/4/18
f 7/2/19 8/5/19 25/5/19 26/2/19
f 30/6/12 32/1/12 31/9/12 29/8/12
f 6/6/20 5/1/20 32/1/20 30/6/20
f 2/8/21 6/7/21 30/7/21 29/8/21
f 5/1/22 1/9/22 31/9/22 32/1/22
