# Blender 3.6.4
# www.blender.org
mtllib untitled.mtl
o Cube
v 0.167109 0.167109 -0.167109
v 0.167109 -0.167109 -0.167109
v 0.167109 0.167109 0.167109
v 0.167109 -0.167109 0.167109
v -0.167109 0.167109 -0.167109
v -0.167109 -0.167109 -0.167109
v -0.167109 0.167109 0.167109
v -0.167109 -0.167109 0.167109
v 0.115220 0.236404 0.115220
v -0.115220 0.236404 0.115220
v 0.115220 0.236404 -0.115220
v -0.115220 0.236404 -0.115220
v 0.073520 0.326946 0.073520
v -0.073520 0.326946 0.073520
v 0.073520 0.326946 -0.073520
v -0.073520 0.326946 -0.073520
v 0.019976 0.362544 0.019976
v -0.019976 0.362544 0.019976
v 0.019976 0.362544 -0.019976
v -0.019976 0.362544 -0.019976
v 0.286453 0.031235 -0.031235
v 0.286453 -0.031235 -0.031235
v 0.286453 0.031235 0.031235
v 0.286453 -0.031235 0.031235
v 0.424088 0.008865 -0.008865
v 0.424088 -0.008865 -0.008865
v 0.424088 0.008865 0.008865
v 0.424088 -0.008865 0.008865
v 0.096668 -0.096668 -0.113855
v -0.096668 -0.096668 -0.113855
v 0.096668 0.096668 -0.113855
v -0.096668 0.096668 -0.113855
v 0.096668 -0.096668 -0.023267
v -0.096668 -0.096668 -0.023267
v 0.096668 0.096668 -0.023267
v -0.096668 0.096668 -0.023267
v 0.058490 -0.058490 -0.023267
v -0.058490 -0.058490 -0.023267
v 0.058490 0.058490 -0.023267
v -0.058490 0.058490 -0.023267
v 0.058490 -0.058490 -0.362727
v -0.058490 -0.058490 -0.362727
v 0.058490 0.058490 -0.362727
v -0.058490 0.058490 -0.362727
v -0.167109 -0.206879 -0.167109
v -0.167109 -0.206879 0.167109
v 0.167109 -0.206879 -0.167109
v 0.167109 -0.206879 0.167109
v -0.080852 -0.206879 -0.080852
v -0.080852 -0.206879 0.080852
v 0.080852 -0.206879 -0.080852
v 0.080852 -0.206879 0.080852
v -0.032623 -0.182740 -0.032623
v -0.032623 -0.182740 0.032623
v 0.032623 -0.182740 -0.032623
v 0.032623 -0.182740 0.032623
v -0.032623 -0.310855 -0.032623
v -0.032623 -0.310855 0.032623
v 0.032623 -0.310855 -0.032623
v 0.032623 -0.310855 0.032623
v -0.096223 -0.338653 -0.096223
v -0.096223 -0.338653 0.096223
v 0.096223 -0.338653 -0.096223
v 0.096223 -0.338653 0.096223
vn -0.0000 0.5994 -0.8005
vn -0.0000 -0.0000 1.0000
vn -1.0000 -0.0000 -0.0000
vn 0.7513 -0.0000 0.6599
vn -0.0000 -0.6031 -0.7977
vn -0.0000 0.4183 -0.9083
vn -0.0000 0.5994 0.8005
vn -0.8005 0.5994 -0.0000
vn 0.8005 0.5994 -0.0000
vn 0.5536 0.8328 -0.0000
vn 0.9083 0.4183 -0.0000
vn -0.9083 0.4183 -0.0000
vn -0.0000 0.4183 0.9083
vn -0.0000 1.0000 -0.0000
vn -0.5536 0.8328 -0.0000
vn -0.0000 0.8328 0.5536
vn -0.0000 0.8328 -0.5536
vn 0.1604 -0.9870 -0.0000
vn 0.7513 -0.0000 -0.6599
vn 0.7513 -0.6599 -0.0000
vn 0.7513 0.6599 -0.0000
vn 1.0000 -0.0000 -0.0000
vn 0.1604 -0.0000 0.9870
vn 0.1604 0.9870 -0.0000
vn 0.1604 -0.0000 -0.9870
vn -0.6031 -0.0000 -0.7977
vn 0.6031 -0.0000 -0.7977
vn -0.0000 0.6031 -0.7977
vn -0.0000 -0.0000 -1.0000
vn -0.0000 -1.0000 -0.0000
vn -0.0000 -0.8942 -0.4476
vn 0.4476 -0.8942 -0.0000
vn -0.4476 -0.8942 -0.0000
vn -0.0000 -0.8942 0.4476
vn -0.0000 0.9163 -0.4005
vn -0.0000 0.9163 0.4005
vn -0.4005 0.9163 -0.0000
vn 0.4005 0.9163 -0.0000
vt 0.625000 0.250000
vt 0.625000 0.500000
vt 0.625000 0.750000
vt 0.375000 1.000000
vt 0.375000 0.750000
vt 0.625000 0.000000
vt 0.375000 0.250000
vt 0.375000 0.000000
vt 0.625000 1.000000
vt 0.875000 0.500000
vt 0.375000 0.500000
vt 0.125000 0.500000
vt 0.125000 0.750000
vt 0.875000 0.750000
s 0
usemtl Material
f 5/1/1 11/2/1 1/2/1
f 3/3/2 8/4/2 4/5/2
f 7/6/3 6/7/3 8/8/3
f 8/4/2 48/5/2 4/5/2
f 4/5/4 23/3/4 3/3/4
f 1/2/5 32/1/5 5/1/5
f 12/1/6 15/2/6 11/2/6
f 3/3/7 10/9/7 7/9/7
f 7/6/8 12/1/8 5/1/8
f 1/2/9 9/3/9 3/3/9
f 15/2/10 17/3/10 13/3/10
f 11/2/11 13/3/11 9/3/11
f 10/6/12 16/1/12 12/1/12
f 9/3/13 14/9/13 10/9/13
f 20/10/14 17/3/14 19/2/14
f 14/6/15 20/1/15 16/1/15
f 13/3/16 18/9/16 14/9/16
f 16/1/17 19/2/17 15/2/17
f 22/11/18 28/5/18 24/5/18
f 1/2/19 22/11/19 2/11/19
f 2/11/20 24/5/20 4/5/20
f 3/3/21 21/2/21 1/2/21
f 25/2/22 28/5/22 26/11/22
f 24/5/23 27/3/23 23/3/23
f 23/3/24 25/2/24 21/2/24
f 21/2/25 26/11/25 22/11/25
f 32/1/22 34/7/22 30/7/22
f 2/11/26 31/2/26 1/2/26
f 5/1/27 30/7/27 6/7/27
f 6/12/28 29/11/28 2/11/28
f 35/2/29 40/1/29 36/1/29
f 30/12/14 33/11/14 29/11/14
f 31/2/30 36/1/30 32/1/30
f 29/11/3 35/2/3 31/2/3
f 40/1/3 42/7/3 38/7/3
f 35/2/29 37/11/29 39/2/29
f 34/7/29 40/1/29 38/7/29
f 34/12/29 37/11/29 33/11/29
f 44/1/29 41/11/29 42/7/29
f 38/12/30 41/11/30 37/11/30
f 39/2/14 44/1/14 40/1/14
f 37/11/22 43/2/22 39/2/22
f 48/5/30 51/11/30 47/11/30
f 6/7/3 46/8/3 8/8/3
f 4/5/22 47/11/22 2/11/22
f 2/11/29 45/12/29 6/12/29
f 50/4/31 56/5/31 52/5/31
f 47/11/30 49/12/30 45/12/30
f 46/4/30 52/5/30 48/5/30
f 45/7/30 50/8/30 46/8/30
f 56/5/22 59/11/22 55/11/22
f 49/7/32 54/8/32 50/8/32
f 52/5/33 55/11/33 51/11/33
f 51/11/34 53/12/34 49/12/34
f 59/11/35 61/12/35 57/12/35
f 55/11/29 57/12/29 53/12/29
f 54/4/2 60/5/2 56/5/2
f 53/7/3 58/8/3 54/8/3
f 63/11/30 62/13/30 61/12/30
f 58/4/36 64/5/36 60/5/36
f 57/7/37 62/8/37 58/8/37
f 60/5/38 63/11/38 59/11/38
f 5/1/1 12/1/1 11/2/1
f 3/3/2 7/9/2 8/4/2
f 7/6/3 5/1/3 6/7/3
f 8/4/2 46/4/2 48/5/2
f 4/5/4 24/5/4 23/3/4
f 1/2/5 31/2/5 32/1/5
f 12/1/6 16/1/6 15/2/6
f 3/3/7 9/3/7 10/9/7
f 7/6/8 10/6/8 12/1/8
f 1/2/9 11/2/9 9/3/9
f 15/2/10 19/2/10 17/3/10
f 11/2/11 15/2/11 13/3/11
f 10/6/12 14/6/12 16/1/12
f 9/3/13 13/3/13 14/9/13
f 20/10/14 18/14/14 17/3/14
f 14/6/15 18/6/15 20/1/15
f 13/3/16 17/3/16 18/9/16
f 16/1/17 20/1/17 19/2/17
f 22/11/18 26/11/18 28/5/18
f 1/2/19 21/2/19 22/11/19
f 2/11/20 22/11/20 24/5/20
f 3/3/21 23/3/21 21/2/21
f 25/2/22 27/3/22 28/5/22
f 24/5/23 28/5/23 27/3/23
f 23/3/24 27/3/24 25/2/24
f 21/2/25 25/2/25 26/11/25
f 32/1/22 36/1/22 34/7/22
f 2/11/26 29/11/26 31/2/26
f 5/1/27 32/1/27 30/7/27
f 6/12/28 30/12/28 29/11/28
f 35/2/29 39/2/29 40/1/29
f 30/12/14 34/12/14 33/11/14
f 31/2/30 35/2/30 36/1/30
f 29/11/3 33/11/3 35/2/3
f 40/1/3 44/1/3 42/7/3
f 35/2/29 33/11/29 37/11/29
f 34/7/29 36/1/29 40/1/29
f 34/12/29 38/12/29 37/11/29
f 44/1/29 43/2/29 41/11/29
f 38/12/30 42/12/30 41/11/30
f 39/2/14 43/2/14 44/1/14
f 37/11/22 41/11/22 43/2/22
f 48/5/30 52/5/30 51/11/30
f 6/7/3 45/7/3 46/8/3
f 4/5/22 48/5/22 47/11/22
f 2/11/29 47/11/29 45/12/29
f 50/4/31 54/4/31 56/5/31
f 47/11/30 51/11/30 49/12/30
f 46/4/30 50/4/30 52/5/30
f 45/7/30 49/7/30 50/8/30
f 56/5/22 60/5/22 59/11/22
f 49/7/32 53/7/32 54/8/32
f 52/5/33 56/5/33 55/11/33
f 51/11/34 55/11/34 53/12/34
f 59/11/35 63/11/35 61/12/35
f 55/11/29 59/11/29 57/12/29
f 54/4/2 58/4/2 60/5/2
f 53/7/3 57/7/3 58/8/3
f 63/11/30 64/5/30 62/13/30
f 58/4/36 62/4/36 64/5/36
f 57/7/37 61/7/37 62/8/37
f 60/5/38 64/5/38 63/11/38
